HIERARCHY
ROOT pelvis
{
  OFFSET 0 100 0
  CHANNELS 6 Xposition Yposition Zposition Zrotation Xrotation Yrotation
  JOINT pelvis_right_femur
  {
    OFFSET -10.78128 -3.44521 -0.5502486
    CHANNELS 3 Zrotation Xrotation Yrotation
    JOINT right_femur_tibia
    {
      OFFSET -0.8047443 -44.0398 -0.1307829
      CHANNELS 3 Zrotation Xrotation Yrotation
      JOINT right_tibia_foot
      {
        OFFSET 3.006224 -47.83518 -5
        CHANNELS 3 Zrotation Xrotation Yrotation
        End Site
        {
          OFFSET 0 -5 15
        }
      }
    }
  }
  JOINT pelvis_left_femur
  {
    OFFSET 10.78128 -3.44521 -0.5502486
    CHANNELS 3 Zrotation Xrotation Yrotation
    JOINT left_femur_tibia
    {
      OFFSET 0.8047443 -44.0398 -0.1307829
      CHANNELS 3 Zrotation Xrotation Yrotation
      JOINT left_tibia_foot
      {
        OFFSET -4.370144 -48.10324 -4.275266
        CHANNELS 3 Zrotation Xrotation Yrotation
        End Site
        {
          OFFSET 0 -5 15
        }
      }
    }
  }
  JOINT pelvis_spine1
  {
    OFFSET 0 6.468898 -3.129235
    CHANNELS 3 Zrotation Xrotation Yrotation
    JOINT spine1
    {
      OFFSET 0 23.15396 4.99043
      CHANNELS 3 Zrotation Xrotation Yrotation
      JOINT spine2
      {
        OFFSET 0 20.79997 -5.064912
        CHANNELS 3 Zrotation Xrotation Yrotation
        JOINT neck
        {
          OFFSET 0 14.38658 9.616178
          CHANNELS 3 Zrotation Xrotation Yrotation
          End Site
          {
            OFFSET 0 20 0
          }
        }
      }
      JOINT right_manubrium
      {
        OFFSET -5.722621 16.35077 3.967754
        CHANNELS 3 Zrotation Xrotation Yrotation
        JOINT right_clavicle
        {
          OFFSET -13.16364 1.694482 -4.693211
          CHANNELS 3 Zrotation Xrotation Yrotation
          JOINT right_humerus
          {
            OFFSET -28.5034 -0.3100689 -2.792744
            CHANNELS 3 Zrotation Xrotation Yrotation
            JOINT right_radius
            {
              OFFSET -25.15693 0.02248979 -1.271978
              CHANNELS 3 Zrotation Xrotation Yrotation
              End Site
              {
                OFFSET -15 0 0
              }
            }
          }
        }
      }
      JOINT left_manubrium
      {
        OFFSET 5.722621 16.35077 3.967754
        CHANNELS 3 Zrotation Xrotation Yrotation
        JOINT left_clavicle
        {
          OFFSET 13.16364 1.694482 -4.693211
          CHANNELS 3 Zrotation Xrotation Yrotation
          JOINT left_humerus
          {
            OFFSET 29.39168 -1.063119 -2.237045
            CHANNELS 3 Zrotation Xrotation Yrotation
            JOINT left_radius
            {
              OFFSET 24.59957 -0.9528479 0.9047498
              CHANNELS 3 Zrotation Xrotation Yrotation
              End Site
              {
                OFFSET 15 -0 -0
              }
            }
          }
        }
      }
    }
  }
}
MOTION
Frames: 13
Frame Time: 0.0416666666667
628.2997 101.1573 3120.279 3.144175 -4.015666 20.52329 -0.05961399 -25.18034 1.312149 -0 16.64448 -0 1.507278 -1.275894 -8.599804 -5.532517 14.3026 -7.400715 -0 14.3554 -0 -3.479309 -19.66482 12.58274 -0.9732088 -0.4356766 5.387457 0.9368834 11.65408 -7.39029 0.5157884 20.51755 7.805753 3.25018 -21.60841 8.154983 0.6041307 -19.10959 12.19367 94.42658 32.63041 -23.26684 -0 0 9.044962 -17.53639 11.073 10.87358 5.216189 -23.69145 -4.982583 -82.74827 19.08255 12.8013 0 0 -36.32242 7.590494 3.3667 6.492603
630.5677 99.85869 3126.552 3.053771 -3.382396 20.96112 0.3220812 -26.06095 1.466904 -0 11.46814 -0 1.988984 -0.5532336 -8.908105 -5.398665 16.52593 -7.147952 -0 17.57904 -0 -5.151412 -19.64633 11.61099 -0.9575665 -0.433617 5.373354 0.9407358 11.64945 -7.400263 0.5153156 20.51991 7.814269 3.228769 -21.64378 8.179958 0.5059589 -19.16358 12.20408 94.57688 32.62581 -23.31927 -0 0 8.979428 -17.46716 11.00661 10.85299 5.181346 -23.74067 -5.016733 -82.64296 19.00454 12.75106 0 0 -36.63707 7.638535 3.385183 6.442882
632.8445 98.85771 3133.301 2.814029 -3.206222 21.29357 1.336789 -25.64867 2.250002 -0 10.0144 -0 2.109318 0.1437047 -9.221733 -4.96407 18.05086 -6.946708 -0 22.69628 -0 -6.795169 -18.35939 11.1339 -0.9433172 -0.4314143 5.356773 0.9488322 11.64333 -7.411733 0.5136787 20.52277 7.824168 3.206337 -21.68572 8.207136 0.409685 -19.22034 12.21828 94.72673 32.63722 -23.36805 -0 0 8.909602 -17.38416 10.93426 10.82995 5.142724 -23.78919 -5.050065 -82.53595 18.91879 12.70586 0 0 -36.95688 7.699356 3.413651 6.373566
635.085 98.39637 3140.414 2.464219 -3.657345 21.42727 2.887234 -23.95817 3.57312 -0 11.84754 -0 1.782695 0.2824022 -9.518923 -4.243907 18.49824 -6.813125 -0 29.64629 -0 -8.115755 -15.88006 11.37371 -0.9306887 -0.4289549 5.337984 0.9610823 11.63578 -7.424428 0.5108226 20.52629 7.835296 3.182775 -21.73384 8.236338 0.3157676 -19.28028 12.23661 94.87484 32.66523 -23.41163 -0 0 8.836975 -17.28768 10.85587 10.80484 5.100051 -23.83606 -5.082247 -82.42822 18.82515 12.66779 0 0 -37.27877 7.772927 3.452616 6.284187
637.2496 98.59821 3147.675 2.166642 -4.742948 21.24511 4.560711 -20.89201 5.075416 -0 15.50322 -0 1.041282 -0.531777 -9.729309 -3.431764 17.3785 -6.75334 -0 37.9839 -0 -8.965348 -12.73954 12.39243 -0.9199314 -0.4261058 5.317202 0.977422 11.62681 -7.438114 0.5066912 20.53062 7.847523 3.157976 -21.78778 8.267416 0.2246951 -19.34379 12.25944 95.01986 32.71038 -23.4485 -0 0 8.763058 -17.17797 10.77134 10.77802 5.053099 -23.88029 -5.112886 -82.32071 18.7235 12.63881 0 0 -37.5995 7.859219 3.502576 6.174194
639.311 99.41572 3154.799 2.132514 -6.22042 20.70527 5.770151 -16.42337 6.236736 -0 18.91386 -0 0.06732415 -2.307463 -9.718833 -2.826336 14.29174 -6.734039 -0 46.62096 -0 -9.380246 -9.810244 13.98046 -0.9113278 -0.4227158 5.294559 0.9978311 11.61638 -7.452608 0.501224 20.5359 7.860763 3.131846 -21.84722 8.300267 0.136997 -19.41117 12.28711 95.16043 32.77319 -23.47717 -0 0 8.689342 -17.05523 10.68058 10.74976 5.001713 -23.92083 -5.141505 -82.21433 18.61377 12.62071 0 0 -37.91566 7.958223 3.564021 6.042902
641.2647 100.6284 3161.55 2.464643 -7.61966 19.91003 6.133604 -10.90969 6.726621 -0 20.33243 -0 -0.7264295 -4.516677 -9.326448 -2.597605 9.225579 -6.652465 -0 53.88216 -0 -9.514389 -7.865124 15.66955 -0.9052047 -0.4186177 5.270069 1.022354 11.60433 -7.467804 0.4943511 20.54223 7.875002 3.104321 -21.9119 8.334847 0.0532591 -19.48261 12.31995 95.29516 32.85419 -23.49627 -0 0 8.617242 -16.91955 10.58346 10.72026 4.945833 -23.95663 -5.167528 -82.10993 18.49599 12.615 0 0 -38.22372 8.069971 3.637422 5.889438
643.1373 101.9173 3167.862 3.035531 -8.493503 19.03349 5.784984 -5.137996 6.69885 -0 19.33336 -0 -0.8286504 -6.371179 -8.508144 -2.550199 2.722861 -6.346926 -0 58.07225 -0 -9.551749 -7.083658 17.00113 -0.9019473 -0.41363 5.243596 1.051121 11.59038 -7.483697 0.4859868 20.54972 7.89033 3.075389 -21.98168 8.371195 -0.02586095 -19.55817 12.35826 95.42267 32.95389 -23.50454 -0 0 8.548042 -16.77095 10.47981 10.68956 4.885532 -23.98662 -5.190254 -82.00823 18.37023 12.62274 0 0 -38.52009 8.19456 3.723222 5.71267
644.972 102.9627 3173.823 3.543966 -8.736508 18.18067 5.21814 0.1146524 6.567186 -0 16.92525 -0 -0.1718518 -7.58227 -7.429374 -2.212158 -4.315763 -5.696416 -0 58.07821 -0 -9.554265 -7.03751 17.8919 -0.9020114 -0.4075582 5.214822 1.084362 11.57411 -7.500408 0.4760255 20.55843 7.906976 3.045117 -22.05654 8.409449 -0.09962555 -19.6377 12.40233 95.54152 33.0728 -23.50089 -0 0 8.48284 -16.60936 10.36945 10.65758 4.821058 -24.00975 -5.208831 -81.90981 18.2367 12.64442 0 0 -38.80111 8.332148 3.821811 5.511178
646.8051 103.5065 3179.552 3.721559 -8.552191 17.36336 4.820356 4.556501 6.482573 -0 14.52674 -0 0.5894281 -8.777279 -6.268142 -1.285604 -11.04631 -4.779916 -0 53.59467 -0 -9.333937 -7.187144 18.61703 -0.9059309 -0.4001949 5.183238 1.122408 11.55491 -7.518182 0.4643391 20.56837 7.925331 3.013669 -22.13663 8.449859 -0.1672219 -19.72087 12.45239 95.6503 33.21137 -23.48442 -0 0 8.42255 -16.43463 10.25211 10.62409 4.752858 -24.025 -5.222236 -81.81512 18.09574 12.67993 0 0 -39.063 8.482925 3.933487 5.283271
648.6732 103.4168 3185.127 3.479265 -8.098364 16.56362 4.618534 8.312318 6.271952 -0 12.99336 -0 0.7638414 -10.74157 -5.026997 0.03555931 -16.8971 -3.883239 -0 45.40402 -0 -8.68408 -7.254774 19.37834 -0.9143165 -0.3913212 5.148162 1.165664 11.53203 -7.53737 0.4507796 20.57953 7.945951 2.98132 -22.22224 8.492787 -0.2277775 -19.80711 12.50862 95.74752 33.3699 -23.45438 -0 0 8.367938 -16.24665 10.12752 10.5887 4.681593 -24.03136 -5.229266 -81.72455 17.9479 12.72856 0 0 -39.3018 8.647048 4.05841 5.027075
650.6306 102.7489 3190.643 2.921867 -7.377307 15.77248 4.405483 11.535 5.832223 -0 12.5579 -0 0.3827625 -13.3279 -3.720287 1.234459 -21.49481 -3.286662 -0 35.58233 -0 -7.701136 -7.191422 20.0736 -0.9278473 -0.3807087 5.108786 1.214571 11.50453 -7.558396 0.4351847 20.59191 7.969549 2.948455 -22.31382 8.538696 -0.2803815 -19.89568 12.57112 95.83165 33.5485 -23.41016 -0 0 8.3197 -16.04539 9.995362 10.55092 4.608138 -24.02781 -5.228535 -81.63849 17.79401 12.78908 0 0 -39.51322 8.824558 4.196544 4.740694
652.7456 101.7169 3196.25 2.309223 -6.453695 15.00417 3.961146 14.25813 5.304884 -0 13.26184 -0 -0.0167593 -15.43381 -2.509844 1.830489 -24.59617 -3.12616 -0 26.77433 -0 -6.66488 -7.05905 20.50206 -0.9472513 -0.3681261 5.064241 1.269557 11.47141 -7.5817 0.4173864 20.60548 7.996958 2.915567 -22.41186 8.588133 -0.3241099 -19.98567 12.63987 95.90104 33.74691 -23.35118 -0 0 8.278561 -15.83101 9.855334 10.51016 4.533563 -24.0133 -5.218501 -81.55744 17.63524 12.8599 0 0 -39.69247 9.015268 4.347594 4.422427
